<svg width="204" height="19" viewBox="0 0 204 19" fill="none" xmlns="http://www.w3.org/2000/svg">
<path d="M14.54 7.98C14.54 6.99333 14.3533 6.06 13.98 5.18C13.6067 4.3 13.0933 3.53333 12.44 2.88C11.8 2.22667 11.04 1.71333 10.16 1.34C9.28 0.953333 8.33333 0.76 7.32 0.76C6.30667 0.76 5.35333 0.953333 4.46 1.34C3.58 1.72667 2.81333 2.25333 2.16 2.92C1.50667 3.57333 0.993333 4.34 0.62 5.22C0.246667 6.1 0.0600001 7.03333 0.0600001 8.02C0.0600001 9.00667 0.246667 9.94 0.62 10.82C0.993333 11.7 1.5 12.4667 2.14 13.12C2.79333 13.7733 3.56 14.2933 4.44 14.68C5.32 15.0533 6.26667 15.24 7.28 15.24C8.29333 15.24 9.24 15.0467 10.12 14.66C11.0133 14.2733 11.7867 13.7533 12.44 13.1C13.0933 12.4333 13.6067 11.66 13.98 10.78C14.3533 9.9 14.54 8.96667 14.54 7.98ZM13.88 7.98C13.88 8.88667 13.7133 9.74667 13.38 10.56C13.0467 11.36 12.58 12.06 11.98 12.66C11.3933 13.26 10.6933 13.74 9.88 14.1C9.08 14.4467 8.21333 14.62 7.28 14.62C6.34667 14.62 5.48 14.4467 4.68 14.1C3.88 13.7533 3.18667 13.28 2.6 12.68C2.01333 12.08 1.55333 11.38 1.22 10.58C0.886667 9.78 0.72 8.92667 0.72 8.02C0.72 7.11333 0.886667 6.26 1.22 5.46C1.55333 4.64667 2.01333 3.94 2.6 3.34C3.2 2.74 3.9 2.26667 4.7 1.92C5.5 1.56 6.37333 1.38 7.32 1.38C8.25333 1.38 9.12 1.55333 9.92 1.9C10.72 2.24667 11.4133 2.72 12 3.32C12.5867 3.92 13.0467 4.62 13.38 5.42C13.7133 6.22 13.88 7.07333 13.88 7.98ZM10.34 10.42L9.62 9.72C9.28667 10.0267 8.95333 10.2733 8.62 10.46C8.28667 10.6333 7.88667 10.72 7.42 10.72C7.04667 10.72 6.7 10.6467 6.38 10.5C6.06 10.3533 5.78 10.1533 5.54 9.9C5.3 9.63333 5.11333 9.32667 4.98 8.98C4.84667 8.63333 4.78 8.26667 4.78 7.88C4.78 7.49333 4.84 7.13333 4.96 6.8C5.09333 6.45333 5.27333 6.15333 5.5 5.9C5.74 5.63333 6.02 5.42667 6.34 5.28C6.66 5.13333 7.01333 5.06 7.4 5.06C7.84 5.06 8.23333 5.16 8.58 5.36C8.94 5.54667 9.26667 5.78 9.56 6.06L10.3 5.26C9.92667 4.91333 9.52 4.62667 9.08 4.4C8.65333 4.17333 8.1 4.06 7.42 4.06C6.87333 4.06 6.36667 4.16 5.9 4.36C5.44667 4.56 5.05333 4.84 4.72 5.2C4.38667 5.54667 4.12667 5.95333 3.94 6.42C3.75333 6.88667 3.66 7.38 3.66 7.9C3.66 8.43333 3.75333 8.93333 3.94 9.4C4.12667 9.86667 4.38667 10.2733 4.72 10.62C5.05333 10.9667 5.44667 11.24 5.9 11.44C6.35333 11.64 6.84667 11.74 7.38 11.74C8.06 11.74 8.62667 11.62 9.08 11.38C9.53333 11.14 9.95333 10.82 10.34 10.42ZM27.7377 2.22C28.111 2.22 28.471 2.28667 28.8177 2.42C29.1643 2.54 29.4643 2.72 29.7177 2.96C29.971 3.18667 30.171 3.46667 30.3177 3.8C30.4777 4.12 30.5577 4.48667 30.5577 4.9C30.5577 5.24667 30.5043 5.58667 30.3977 5.92C30.3043 6.24 30.1377 6.57333 29.8977 6.92C29.671 7.25333 29.371 7.61333 28.9977 8C28.6243 8.38667 28.171 8.82 27.6377 9.3L22.5577 13.78V15H32.3377V13.56H24.9177L28.6577 10.24C29.271 9.70667 29.7977 9.22 30.2377 8.78C30.6777 8.32667 31.0443 7.89333 31.3377 7.48C31.631 7.05333 31.8443 6.62667 31.9777 6.2C32.1243 5.77333 32.1977 5.3 32.1977 4.78C32.1977 4.20667 32.091 3.68 31.8777 3.2C31.6643 2.70667 31.3643 2.28667 30.9777 1.94C30.591 1.58 30.131 1.3 29.5977 1.1C29.0777 0.899999 28.4977 0.799999 27.8577 0.799999C27.2443 0.799999 26.691 0.866666 26.1977 0.999999C25.7177 1.13333 25.2777 1.32667 24.8777 1.58C24.491 1.83333 24.131 2.14667 23.7977 2.52C23.4643 2.89333 23.1377 3.31333 22.8177 3.78L23.9777 4.62C24.5377 3.83333 25.1043 3.24 25.6777 2.84C26.251 2.42667 26.9377 2.22 27.7377 2.22ZM46.6303 7.98C46.6303 6.99333 46.4903 6.06667 46.2103 5.2C45.9436 4.32 45.5503 3.55333 45.0303 2.9C44.5236 2.23333 43.9036 1.71333 43.1703 1.34C42.4503 0.953333 41.6436 0.76 40.7503 0.76C39.8436 0.76 39.0236 0.953333 38.2903 1.34C37.557 1.72667 36.9303 2.25333 36.4103 2.92C35.9036 3.57333 35.5103 4.34 35.2303 5.22C34.9503 6.1 34.8103 7.03333 34.8103 8.02C34.8103 9.00667 34.9436 9.94 35.2103 10.82C35.4903 11.6867 35.8836 12.4533 36.3903 13.12C36.9103 13.7733 37.5303 14.2933 38.2503 14.68C38.9836 15.0533 39.8036 15.24 40.7103 15.24C41.6036 15.24 42.417 15.0467 43.1503 14.66C43.8836 14.2733 44.5036 13.7533 45.0103 13.1C45.5303 12.4333 45.9303 11.66 46.2103 10.78C46.4903 9.9 46.6303 8.96667 46.6303 7.98ZM44.9903 8.02C44.9903 8.79333 44.8903 9.53333 44.6903 10.24C44.5036 10.9333 44.2236 11.5467 43.8503 12.08C43.4903 12.6 43.0436 13.02 42.5103 13.34C41.9903 13.6467 41.4036 13.8 40.7503 13.8C40.097 13.8 39.5036 13.6467 38.9703 13.34C38.437 13.02 37.9836 12.5933 37.6103 12.06C37.237 11.5267 36.9503 10.9067 36.7503 10.2C36.5503 9.49333 36.4503 8.75333 36.4503 7.98C36.4503 7.20667 36.5503 6.47333 36.7503 5.78C36.9503 5.07333 37.2303 4.46 37.5903 3.94C37.9636 3.40667 38.4103 2.98667 38.9303 2.68C39.4636 2.36 40.057 2.2 40.7103 2.2C41.3636 2.2 41.9503 2.36 42.4703 2.68C43.0036 3 43.457 3.42667 43.8303 3.96C44.2036 4.49333 44.4903 5.11333 44.6903 5.82C44.8903 6.51333 44.9903 7.24667 44.9903 8.02ZM53.8119 2.22C54.1852 2.22 54.5452 2.28667 54.8919 2.42C55.2385 2.54 55.5385 2.72 55.7919 2.96C56.0452 3.18667 56.2452 3.46667 56.3919 3.8C56.5519 4.12 56.6319 4.48667 56.6319 4.9C56.6319 5.24667 56.5785 5.58667 56.4719 5.92C56.3785 6.24 56.2119 6.57333 55.9719 6.92C55.7452 7.25333 55.4452 7.61333 55.0719 8C54.6985 8.38667 54.2452 8.82 53.7119 9.3L48.6319 13.78V15H58.4119V13.56H50.9919L54.7319 10.24C55.3452 9.70667 55.8719 9.22 56.3119 8.78C56.7519 8.32667 57.1185 7.89333 57.4119 7.48C57.7052 7.05333 57.9185 6.62667 58.0519 6.2C58.1985 5.77333 58.2719 5.3 58.2719 4.78C58.2719 4.20667 58.1652 3.68 57.9519 3.2C57.7385 2.70667 57.4385 2.28667 57.0519 1.94C56.6652 1.58 56.2052 1.3 55.6719 1.1C55.1519 0.899999 54.5719 0.799999 53.9319 0.799999C53.3185 0.799999 52.7652 0.866666 52.2719 0.999999C51.7919 1.13333 51.3519 1.32667 50.9519 1.58C50.5652 1.83333 50.2052 2.14667 49.8719 2.52C49.5385 2.89333 49.2119 3.31333 48.8919 3.78L50.0519 4.62C50.6119 3.83333 51.1785 3.24 51.7519 2.84C52.3252 2.42667 53.0119 2.22 53.8119 2.22ZM72.7045 7.98C72.7045 6.99333 72.5645 6.06667 72.2845 5.2C72.0179 4.32 71.6245 3.55333 71.1045 2.9C70.5979 2.23333 69.9779 1.71333 69.2445 1.34C68.5245 0.953333 67.7179 0.76 66.8245 0.76C65.9179 0.76 65.0979 0.953333 64.3645 1.34C63.6312 1.72667 63.0045 2.25333 62.4845 2.92C61.9779 3.57333 61.5845 4.34 61.3045 5.22C61.0245 6.1 60.8845 7.03333 60.8845 8.02C60.8845 9.00667 61.0179 9.94 61.2845 10.82C61.5645 11.6867 61.9579 12.4533 62.4645 13.12C62.9845 13.7733 63.6045 14.2933 64.3245 14.68C65.0579 15.0533 65.8779 15.24 66.7845 15.24C67.6779 15.24 68.4912 15.0467 69.2245 14.66C69.9579 14.2733 70.5779 13.7533 71.0845 13.1C71.6045 12.4333 72.0045 11.66 72.2845 10.78C72.5645 9.9 72.7045 8.96667 72.7045 7.98ZM71.0645 8.02C71.0645 8.79333 70.9645 9.53333 70.7645 10.24C70.5779 10.9333 70.2979 11.5467 69.9245 12.08C69.5645 12.6 69.1179 13.02 68.5845 13.34C68.0645 13.6467 67.4779 13.8 66.8245 13.8C66.1712 13.8 65.5779 13.6467 65.0445 13.34C64.5112 13.02 64.0579 12.5933 63.6845 12.06C63.3112 11.5267 63.0245 10.9067 62.8245 10.2C62.6245 9.49333 62.5245 8.75333 62.5245 7.98C62.5245 7.20667 62.6245 6.47333 62.8245 5.78C63.0245 5.07333 63.3045 4.46 63.6645 3.94C64.0379 3.40667 64.4845 2.98667 65.0045 2.68C65.5379 2.36 66.1312 2.2 66.7845 2.2C67.4379 2.2 68.0245 2.36 68.5445 2.68C69.0779 3 69.5312 3.42667 69.9045 3.96C70.2779 4.49333 70.5645 5.11333 70.7645 5.82C70.9645 6.51333 71.0645 7.24667 71.0645 8.02ZM83.1375 4.5C83.1375 4.18 83.2042 3.88 83.3375 3.6C83.4842 3.32 83.6842 3.08 83.9375 2.88C84.2042 2.68 84.5175 2.52 84.8775 2.4C85.2508 2.28 85.6642 2.22 86.1175 2.22C86.8375 2.22 87.5242 2.34 88.1775 2.58C88.8442 2.82 89.5042 3.20667 90.1575 3.74L91.0775 2.52C90.3575 1.94667 89.6108 1.52 88.8375 1.24C88.0775 0.946666 87.1842 0.799999 86.1575 0.799999C85.4908 0.799999 84.8775 0.899999 84.3175 1.1C83.7575 1.28667 83.2708 1.55333 82.8575 1.9C82.4442 2.23333 82.1242 2.63333 81.8975 3.1C81.6708 3.56667 81.5575 4.08 81.5575 4.64C81.5575 5.22667 81.6508 5.73333 81.8375 6.16C82.0242 6.58667 82.3108 6.96 82.6975 7.28C83.0842 7.6 83.5708 7.87333 84.1575 8.1C84.7575 8.32667 85.4575 8.52667 86.2575 8.7C86.9908 8.86 87.5908 9.02667 88.0575 9.2C88.5375 9.37333 88.9108 9.56667 89.1775 9.78C89.4442 9.99333 89.6308 10.2333 89.7375 10.5C89.8442 10.7533 89.8975 11.0467 89.8975 11.38C89.8975 12.1 89.6108 12.68 89.0375 13.12C88.4775 13.56 87.7242 13.78 86.7775 13.78C85.8042 13.78 84.9442 13.62 84.1975 13.3C83.4508 12.9667 82.7108 12.4667 81.9775 11.8L80.9975 12.96C81.8375 13.72 82.7175 14.2867 83.6375 14.66C84.5708 15.02 85.5975 15.2 86.7175 15.2C87.4108 15.2 88.0508 15.1067 88.6375 14.92C89.2242 14.7333 89.7242 14.4667 90.1375 14.12C90.5642 13.7733 90.8975 13.3533 91.1375 12.86C91.3775 12.3667 91.4975 11.82 91.4975 11.22C91.4975 10.14 91.1242 9.29333 90.3775 8.68C89.6442 8.06667 88.4975 7.58667 86.9375 7.24C86.1642 7.08 85.5308 6.91333 85.0375 6.74C84.5442 6.55333 84.1575 6.35333 83.8775 6.14C83.5975 5.91333 83.4042 5.66667 83.2975 5.4C83.1908 5.13333 83.1375 4.83333 83.1375 4.5ZM104.89 9.82C104.89 8.96667 104.75 8.20667 104.47 7.54C104.19 6.87333 103.817 6.31333 103.35 5.86C102.884 5.39333 102.35 5.04 101.75 4.8C101.164 4.56 100.564 4.44 99.9505 4.44C99.4705 4.44 99.0305 4.50667 98.6305 4.64C98.2438 4.76 97.8905 4.92667 97.5705 5.14C97.2505 5.34 96.9571 5.58 96.6905 5.86C96.4371 6.14 96.2038 6.43333 95.9905 6.74V4.66H94.4505V18.2H95.9905V13.02C96.1905 13.3133 96.4171 13.5933 96.6705 13.86C96.9371 14.1267 97.2305 14.36 97.5505 14.56C97.8705 14.76 98.2305 14.92 98.6305 15.04C99.0305 15.16 99.4705 15.22 99.9505 15.22C100.577 15.22 101.184 15.1 101.77 14.86C102.37 14.6067 102.897 14.2533 103.35 13.8C103.817 13.3333 104.19 12.7667 104.47 12.1C104.75 11.4333 104.89 10.6733 104.89 9.82ZM103.31 9.84C103.31 10.4667 103.21 11.0333 103.01 11.54C102.824 12.0333 102.564 12.4533 102.23 12.8C101.91 13.1333 101.524 13.3933 101.07 13.58C100.63 13.7533 100.164 13.84 99.6705 13.84C99.1905 13.84 98.7238 13.7467 98.2705 13.56C97.8305 13.36 97.4305 13.0867 97.0705 12.74C96.7238 12.3933 96.4438 11.9733 96.2305 11.48C96.0305 10.9733 95.9305 10.42 95.9305 9.82C95.9305 9.22 96.0305 8.67333 96.2305 8.18C96.4438 7.68667 96.7238 7.26667 97.0705 6.92C97.4305 6.57333 97.8305 6.30667 98.2705 6.12C98.7238 5.92 99.1905 5.82 99.6705 5.82C100.164 5.82 100.63 5.91333 101.07 6.1C101.51 6.28667 101.897 6.56 102.23 6.92C102.564 7.26667 102.824 7.68667 103.01 8.18C103.21 8.67333 103.31 9.22667 103.31 9.84ZM109.412 15V0.4H107.872V15H109.412ZM114.786 2.4V0.699999H113.026V2.4H114.786ZM114.666 15V4.66H113.126V15H114.666ZM120.32 6.02H123.6V4.66H120.32V1.54H118.78V4.66H117.34V6.02H118.78V12.26C118.78 12.78 118.853 13.2267 119 13.6C119.146 13.9733 119.346 14.28 119.6 14.52C119.866 14.7467 120.18 14.9133 120.54 15.02C120.9 15.1267 121.286 15.18 121.7 15.18C122.073 15.18 122.406 15.14 122.7 15.06C123.006 14.9933 123.293 14.8867 123.56 14.74V13.42C123.293 13.5533 123.04 13.6467 122.8 13.7C122.573 13.7533 122.326 13.78 122.06 13.78C121.54 13.78 121.12 13.6533 120.8 13.4C120.48 13.1467 120.32 12.7 120.32 12.06V6.02ZM132.545 0.999999H126.585V15H132.805C133.565 15 134.259 14.9133 134.885 14.74C135.512 14.5667 136.045 14.32 136.485 14C136.939 13.6667 137.285 13.26 137.525 12.78C137.765 12.3 137.885 11.76 137.885 11.16C137.885 10.68 137.805 10.2533 137.645 9.88C137.485 9.50667 137.272 9.18667 137.005 8.92C136.739 8.65333 136.419 8.42667 136.045 8.24C135.685 8.04 135.299 7.88 134.885 7.76C135.165 7.64 135.432 7.49333 135.685 7.32C135.952 7.13333 136.192 6.90667 136.405 6.64C136.619 6.37333 136.785 6.06667 136.905 5.72C137.039 5.37333 137.105 4.96667 137.105 4.5C137.105 3.96667 136.999 3.48667 136.785 3.06C136.572 2.62 136.265 2.25333 135.865 1.96C135.465 1.65333 134.985 1.42 134.425 1.26C133.865 1.08667 133.239 0.999999 132.545 0.999999ZM132.285 7.24H128.145V2.42H132.405C133.405 2.42 134.172 2.62667 134.705 3.04C135.239 3.45333 135.505 4.01333 135.505 4.72C135.505 5.54667 135.205 6.17333 134.605 6.6C134.005 7.02667 133.232 7.24 132.285 7.24ZM132.845 13.58H128.145V8.64H132.565C133.792 8.64 134.719 8.85333 135.345 9.28C135.972 9.69333 136.285 10.2867 136.285 11.06C136.285 11.86 135.979 12.48 135.365 12.92C134.752 13.36 133.912 13.58 132.845 13.58ZM142.559 2.4V0.699999H140.799V2.4H142.559ZM142.439 15V4.66H140.899V15H142.439ZM147.693 15V0.4H146.153V15H147.693ZM152.947 15V0.4H151.407V15H152.947ZM163.621 12.1V12.06C163.621 11.5933 163.521 11.2 163.321 10.88C163.134 10.56 162.881 10.2867 162.561 10.06C162.241 9.83333 161.881 9.64667 161.481 9.5C161.094 9.35333 160.701 9.22 160.301 9.1C159.954 8.99333 159.621 8.88667 159.301 8.78C158.981 8.67333 158.694 8.55333 158.441 8.42C158.201 8.28667 158.007 8.13333 157.861 7.96C157.714 7.77333 157.641 7.56 157.641 7.32V7.28C157.641 6.85333 157.821 6.5 158.181 6.22C158.541 5.92667 159.027 5.78 159.641 5.78C160.147 5.78 160.661 5.87333 161.181 6.06C161.714 6.23333 162.221 6.47333 162.701 6.78L163.401 5.62C162.867 5.27333 162.274 5 161.621 4.8C160.967 4.58667 160.321 4.48 159.681 4.48C159.174 4.48 158.701 4.55333 158.261 4.7C157.834 4.83333 157.461 5.03333 157.141 5.3C156.834 5.55333 156.594 5.86667 156.421 6.24C156.247 6.6 156.161 7 156.161 7.44V7.48C156.161 7.96 156.261 8.36 156.461 8.68C156.674 9 156.941 9.26667 157.261 9.48C157.594 9.69333 157.961 9.87333 158.361 10.02C158.774 10.1533 159.181 10.28 159.581 10.4C159.914 10.4933 160.234 10.5933 160.541 10.7C160.861 10.8067 161.141 10.9333 161.381 11.08C161.621 11.2133 161.807 11.3733 161.941 11.56C162.087 11.7467 162.161 11.9667 162.161 12.22V12.26C162.161 12.7667 161.961 13.1667 161.561 13.46C161.161 13.7533 160.647 13.9 160.021 13.9C159.407 13.9 158.794 13.7867 158.181 13.56C157.581 13.3333 157.001 13.0067 156.441 12.58L155.661 13.68C156.247 14.1467 156.921 14.52 157.681 14.8C158.441 15.0667 159.194 15.2 159.941 15.2C160.461 15.2 160.941 15.1333 161.381 15C161.834 14.8533 162.221 14.6467 162.541 14.38C162.874 14.1133 163.134 13.7933 163.321 13.42C163.521 13.0333 163.621 12.5933 163.621 12.1ZM172.878 0.999999V15H174.458V0.999999H172.878ZM179.838 9.08C179.838 8.6 179.911 8.16 180.058 7.76C180.218 7.36 180.438 7.02 180.718 6.74C180.998 6.44667 181.325 6.22667 181.698 6.08C182.085 5.92 182.498 5.84 182.938 5.84C183.858 5.84 184.565 6.12 185.058 6.68C185.551 7.24 185.798 8 185.798 8.96V15H187.338V8.58C187.338 7.96667 187.245 7.40667 187.058 6.9C186.885 6.39333 186.625 5.96 186.278 5.6C185.945 5.22667 185.531 4.94 185.038 4.74C184.558 4.54 184.005 4.44 183.378 4.44C182.485 4.44 181.758 4.64 181.198 5.04C180.638 5.42667 180.185 5.9 179.838 6.46V4.66H178.298V15H179.838V9.08ZM199.502 13.24L198.522 12.32C198.109 12.76 197.642 13.1267 197.122 13.42C196.616 13.7133 196.029 13.86 195.362 13.86C194.816 13.86 194.309 13.76 193.842 13.56C193.389 13.3467 192.989 13.06 192.642 12.7C192.309 12.3267 192.042 11.8933 191.842 11.4C191.656 10.9067 191.562 10.38 191.562 9.82C191.562 9.26 191.656 8.74 191.842 8.26C192.029 7.76667 192.289 7.34 192.622 6.98C192.956 6.60667 193.349 6.32 193.802 6.12C194.256 5.90667 194.742 5.8 195.262 5.8C195.969 5.8 196.562 5.95333 197.042 6.26C197.536 6.56667 197.989 6.93333 198.402 7.36L199.422 6.28C199.182 6.02667 198.922 5.78667 198.642 5.56C198.362 5.33333 198.056 5.14 197.722 4.98C197.389 4.80667 197.022 4.67333 196.622 4.58C196.222 4.48667 195.776 4.44 195.282 4.44C194.522 4.44 193.816 4.58667 193.162 4.88C192.522 5.16 191.962 5.54667 191.482 6.04C191.016 6.53333 190.649 7.11333 190.382 7.78C190.116 8.43333 189.982 9.12667 189.982 9.86C189.982 10.5933 190.116 11.2867 190.382 11.94C190.649 12.5933 191.016 13.1667 191.482 13.66C191.962 14.14 192.522 14.5267 193.162 14.82C193.816 15.1 194.522 15.24 195.282 15.24C196.256 15.24 197.069 15.0533 197.722 14.68C198.389 14.3067 198.982 13.8267 199.502 13.24ZM203.708 15V12.9H201.868V15H203.708Z" fill="white"/>
</svg>
